<?xml version="1.0" encoding="UTF-8" standalone="no"?>
<svg
   xmlns:dc="http://purl.org/dc/elements/1.1/"
   xmlns:cc="http://creativecommons.org/ns#"
   xmlns:rdf="http://www.w3.org/1999/02/22-rdf-syntax-ns#"
   xmlns:svg="http://www.w3.org/2000/svg"
   xmlns="http://www.w3.org/2000/svg"
   viewBox="0 0 661.41736 377.95334"
   height="377.95334"
   width="661.41736"
   xml:space="preserve"
   id="svg2"
   version="1.1"><metadata
     id="metadata8"><rdf:RDF><cc:Work
         rdf:about=""><dc:format>image/svg+xml</dc:format><dc:type
           rdf:resource="http://purl.org/dc/dcmitype/StillImage" /></cc:Work></rdf:RDF></metadata><defs
     id="defs6"><clipPath
       id="clipPath24"
       clipPathUnits="userSpaceOnUse"><path
         id="path22"
         d="M 0,0 H 496.063 V 283.465 H 0 Z" /></clipPath></defs><g
     transform="matrix(1.3333333,0,0,-1.3333333,0,377.95333)"
     id="g10"><path
       id="path12"
       style="fill:#ffffff;fill-opacity:1;fill-rule:nonzero;stroke:none"
       d="M 0,0 H 496.063 V 283.465 H 0 Z" /><path
       id="path14"
       style="fill:#71501F;fill-opacity:1;fill-rule:nonzero;stroke:none"
       d="M 0.311,0.198 H 496.062 V 65.122 H 0.311 Z" /><path
       id="path16"
       style="fill:#71501F;fill-opacity:1;fill-rule:nonzero;stroke:none"
       d="m 0.311,218.739 h 495.751 v 64.726 H 0.311 Z" /><g
       id="g18"><g
         clip-path="url(#clipPath24)"
         id="g20"><g
           transform="translate(40.683,41.9072)"
           id="g26"><path
             id="path28"
             style="fill:#ffffff;fill-opacity:1;fill-rule:nonzero;stroke:none"
             d="m 0,0 c -7.605,-6.622 -11.745,-20.226 -11.848,-29.9 h -7.86 c 0.825,10.705 5.277,21.106 12.158,29.383 H -24.727 V 6.31 L 0,6.31 Z" /></g><g
           transform="translate(58.838,39.0126)"
           id="g30"><path
             id="path32"
             style="fill:#ffffff;fill-opacity:1;fill-rule:nonzero;stroke:none"
             d="M 0,0 H -0.156 L -9.52,-12.576 H 0 Z m 0,-18.63 h -15.315 v 6.736 L 0.413,9.205 H 6.98 v -21.781 h 4.819 V -18.63 H 6.98 v -8.375 H 0 Z" /></g><g
           transform="translate(83.2477,33.5829)"
           id="g34"><path
             id="path36"
             style="fill:#ffffff;fill-opacity:1;fill-rule:nonzero;stroke:none"
             d="m 0,0 c 3.157,-0.264 7.712,0.36 7.712,4.498 0,3.052 -2.434,4.813 -5.122,4.813 -3.678,0 -5.639,-2.744 -5.591,-6.464 h -6.981 c 0.258,7.389 5.066,12.51 12.517,12.51 5.795,0 12.158,-3.558 12.158,-10.03 0,-3.412 -1.709,-6.472 -5.068,-7.403 v -0.096 c 3.984,-0.884 6.413,-4.189 6.413,-8.232 0,-7.602 -6.365,-11.894 -13.448,-11.894 -8.122,0 -13.611,4.857 -13.453,13.189 h 6.985 c 0.156,-3.93 2.121,-7.136 6.358,-7.136 3.315,0 5.905,2.275 5.905,5.69 0,5.478 -4.813,5.379 -8.385,5.379 z" /></g><g
           transform="translate(109.1583,24.0625)"
           id="g38"><path
             id="path40"
             style="fill:#ffffff;fill-opacity:1;fill-rule:nonzero;stroke:none"
             d="m 0,0 c 0,-3.364 2.174,-6.725 5.848,-6.725 3.515,0 5.536,3.361 5.536,6.622 0,3.416 -1.763,6.832 -5.536,6.832 C 1.915,6.729 0,3.57 0,0 m 11.121,14.848 c -0.461,2.428 -2.325,4.497 -4.86,4.497 -5.329,0 -6.725,-6.978 -6.929,-11.02 l 0.103,-0.103 c 2.018,2.85 4.654,4.039 8.172,4.039 3.107,0 6.261,-1.453 8.33,-3.724 1.913,-2.223 2.79,-5.224 2.79,-8.074 0,-7.397 -5.122,-13.241 -12.676,-13.241 -10.96,0 -13.911,9.568 -13.911,18.729 0,8.845 3.933,18.927 14.225,18.927 6.261,0 10.915,-3.669 11.744,-10.03 z" /></g><g
           transform="translate(140.7588,33.5829)"
           id="g42"><path
             id="path44"
             style="fill:#ffffff;fill-opacity:1;fill-rule:nonzero;stroke:none"
             d="m 0,0 c 3.159,-0.264 7.71,0.36 7.71,4.498 0,3.052 -2.434,4.813 -5.123,4.813 -3.673,0 -5.639,-2.744 -5.588,-6.464 h -6.983 c 0.256,7.389 5.07,12.51 12.515,12.51 5.797,0 12.159,-3.558 12.159,-10.03 0,-3.412 -1.705,-6.472 -5.067,-7.403 v -0.096 c 3.984,-0.884 6.413,-4.189 6.413,-8.232 0,-7.602 -6.362,-11.894 -13.449,-11.894 -8.123,0 -13.608,4.857 -13.452,13.189 h 6.987 c 0.15,-3.93 2.119,-7.136 6.363,-7.136 3.31,0 5.896,2.275 5.896,5.69 0,5.478 -4.811,5.379 -8.381,5.379 z" /></g><g
           transform="translate(202.3659,16.2007)"
           id="g46"><path
             id="path48"
             style="fill:#ffffff;fill-opacity:1;fill-rule:nonzero;stroke:none"
             d="m 0,0 c -2.849,-3.676 -6.574,-5.074 -10.142,-5.074 -11.434,0 -18.157,8.537 -18.157,19.195 0,10.966 6.723,19.499 18.157,19.499 7.552,0 14.693,-4.652 15.57,-13.035 h -7.756 c -0.935,4.087 -3.988,6.211 -7.814,6.211 -7.294,0 -10.036,-6.211 -10.036,-12.675 0,-6.156 2.742,-12.367 10.036,-12.367 5.279,0 8.332,2.847 8.794,7.968 H -9.52 v 6.054 H 6 V -4.193 H 0.827 Z" /></g><path
           id="path50"
           style="fill:#ffffff;fill-opacity:1;fill-rule:nonzero;stroke:none"
           d="m 232.36,59.136 h 6.985 v -6.054 h -6.985 z m -10.658,0 h 6.985 v -6.054 h -6.985 z m 24.573,-33.162 c 0,-9.986 -5.895,-14.847 -15.777,-14.847 -9.935,0 -15.73,4.809 -15.73,14.847 V 48.94 h 8.125 V 25.974 c 0,-4.028 1.034,-8.02 7.605,-8.02 5.791,0 7.657,2.539 7.657,8.02 V 48.94 h 8.12 z" /><g
           transform="translate(279.9449,16.2007)"
           id="g52"><path
             id="path54"
             style="fill:#ffffff;fill-opacity:1;fill-rule:nonzero;stroke:none"
             d="m 0,0 c -2.847,-3.676 -6.574,-5.074 -10.14,-5.074 -11.432,0 -18.155,8.537 -18.155,19.195 0,10.966 6.723,19.499 18.155,19.499 7.55,0 14.689,-4.652 15.57,-13.035 h -7.763 c -0.925,4.087 -3.984,6.211 -7.807,6.211 -7.294,0 -10.031,-6.211 -10.031,-12.675 0,-6.156 2.737,-12.367 10.031,-12.367 5.275,0 8.328,2.847 8.79,7.968 h -8.167 v 6.054 H 5.995 V -4.193 H 0.829 Z" /></g><g
           transform="translate(292.5069,48.9403)"
           id="g56"><path
             id="path58"
             style="fill:#ffffff;fill-opacity:1;fill-rule:nonzero;stroke:none"
             d="m 0,0 h 8.115 v -30.102 h 18.013 v -6.831 H 0 Z" /></g><path
           id="path60"
           style="fill:#ffffff;fill-opacity:1;fill-rule:nonzero;stroke:none"
           d="m 323.177,48.94 h 8.115 V 12.007 h -8.115 z" /><g
           transform="translate(338.432,48.9403)"
           id="g62"><path
             id="path64"
             style="fill:#ffffff;fill-opacity:1;fill-rule:nonzero;stroke:none"
             d="M 0,0 H 8.071 L 23.487,-24.775 H 23.59 V 0 h 7.609 V -36.933 H 23.076 L 7.712,-12.202 H 7.609 V -36.933 H 0 Z" /></g><g
           transform="translate(403.4491,16.2007)"
           id="g66"><path
             id="path68"
             style="fill:#ffffff;fill-opacity:1;fill-rule:nonzero;stroke:none"
             d="m 0,0 c -2.839,-3.676 -6.567,-5.074 -10.133,-5.074 -11.439,0 -18.16,8.537 -18.16,19.195 0,10.966 6.721,19.499 18.16,19.499 7.55,0 14.69,-4.652 15.57,-13.035 h -7.756 c -0.939,4.087 -3.991,6.211 -7.814,6.211 -7.294,0 -10.038,-6.211 -10.038,-12.675 0,-6.156 2.744,-12.367 10.038,-12.367 5.268,0 8.328,2.847 8.79,7.968 h -8.166 v 6.054 H 6.002 V -4.193 H 0.837 Z" /></g><g
           transform="translate(416.0111,48.9403)"
           id="g70"><path
             id="path72"
             style="fill:#ffffff;fill-opacity:1;fill-rule:nonzero;stroke:none"
             d="M 0,0 H 27.626 V -6.82 H 8.122 v -7.917 h 17.904 v -6.314 H 8.122 v -9.051 h 19.922 v -6.831 l -28.044,0 z" /></g><g
           transform="translate(449.5283,48.9403)"
           id="g74"><path
             id="path76"
             style="fill:#ffffff;fill-opacity:1;fill-rule:nonzero;stroke:none"
             d="m 0,0 h 8.072 l 15.415,-24.775 h 0.111 V 0 h 7.601 V -36.933 H 23.076 L 7.712,-12.202 H 7.609 V -36.933 H 0 Z" /></g><g
           transform="translate(15.9559,266.5)"
           id="g78"><path
             id="path80"
             style="fill:#ffffff;fill-opacity:1;fill-rule:evenodd;stroke:none"
             d="m 0,0 v -30.06 h 12.644 c 5.958,0 11.496,1.787 11.496,8.77 0,3.366 -1.449,5.837 -4.598,7.11 -0.171,0.043 -0.343,0.088 -0.47,0.174 2.682,0.975 4.3,3.658 4.3,6.468 C 23.372,-0.895 16.392,0 11.195,0 Z M 12.729,-11.707 H 6.642 v 5.958 h 6.129 c 1.959,0 3.962,-0.552 3.962,-2.939 0,-2.426 -1.92,-3.019 -4.004,-3.019 m 0.082,-12.732 H 6.642 v 7.366 h 6.727 c 2.04,0 3.918,-1.148 3.918,-3.364 0,-2.896 -1.79,-4.002 -4.476,-4.002" /></g><g
           transform="translate(53.3404,266.5)"
           id="g82"><path
             id="path84"
             style="fill:#ffffff;fill-opacity:1;fill-rule:evenodd;stroke:none"
             d="m 0,0 -10.047,-30.06 h 7.236 l 1.875,6.09 H 9.153 l 1.873,-6.09 h 7.367 L 8.429,0 Z M 7.533,-18.564 H 0.598 l 3.531,12.391 z" /></g><g
           transform="translate(76.8879,266.5)"
           id="g86"><path
             id="path88"
             style="fill:#ffffff;fill-opacity:1;fill-rule:nonzero;stroke:none"
             d="m 0,0 v -19.543 c 0,-8.004 4.518,-11.025 12.092,-11.025 7.494,0 12.01,2.852 12.01,10.856 V 0 h -6.685 v -16.304 c 0,-1.027 0.041,-2.045 0.041,-3.069 0,-3.744 -0.978,-5.49 -5.023,-5.49 -4.727,0 -5.749,1.999 -5.749,6.383 L 6.686,0 H 0" /></g><g
           transform="translate(108.3547,266.5)"
           id="g90"><path
             id="path92"
             style="fill:#ffffff;fill-opacity:1;fill-rule:nonzero;stroke:none"
             d="m 0,0 v -19.543 c 0,-8.004 4.518,-11.025 12.092,-11.025 7.495,0 12.01,2.852 12.01,10.856 V 0 h -6.688 v -16.304 c 0,-1.027 0.046,-2.045 0.046,-3.069 0,-3.744 -0.98,-5.49 -5.025,-5.49 -4.725,0 -5.747,1.999 -5.747,6.383 L 6.688,0 H 0" /></g><g
           transform="translate(139.9958,266.5)"
           id="g94"><path
             id="path96"
             style="fill:#ffffff;fill-opacity:1;fill-rule:nonzero;stroke:none"
             d="m 0,0 v -30.06 h 6.171 v 14.817 c 0,2.344 -0.085,4.686 -0.169,7.025 0.682,-2.427 2.001,-4.555 3.192,-6.682 l 8.436,-15.16 h 6.974 V 0 h -6.299 v -14.603 c 0,-2.385 0.176,-4.77 0.262,-7.152 -0.726,2.255 -1.92,4.257 -3.026,6.256 L 6.938,0 H 0" /></g><g
           transform="translate(169.2446,266.5)"
           id="g98"><path
             id="path100"
             style="fill:#ffffff;fill-opacity:1;fill-rule:nonzero;stroke:none"
             d="M 0,0 V -5.791 H 9.24 V -30.06 h 6.686 v 24.269 h 8.981 V 0 Z" /></g><g
           transform="translate(199.3943,266.5)"
           id="g102"><path
             id="path104"
             style="fill:#ffffff;fill-opacity:1;fill-rule:nonzero;stroke:none"
             d="m 0,0 v -30.06 h 22.609 v 5.749 H 6.686 v 7.367 h 13.752 v 5.362 H 6.686 v 5.833 H 22.354 V 0 Z" /></g><g
           transform="translate(228.0965,266.5)"
           id="g106"><path
             id="path108"
             style="fill:#ffffff;fill-opacity:1;fill-rule:evenodd;stroke:none"
             d="m 0,0 v -30.06 h 6.598 v 12.052 h 3.537 c 4.725,0 6.429,-1.578 6.429,-6.134 0,-1.912 -0.3,-4.641 1.361,-5.918 h 6.724 c -3.656,4.472 1.408,12.606 -6.045,14.73 3.493,1.066 5.282,3.663 5.282,7.283 C 23.886,-1.703 18.692,0 13.285,0 Z M 13.243,-12.732 H 6.598 v 6.983 h 6.004 c 2.429,0 4.641,-0.424 4.641,-3.36 0,-2.558 -1.614,-3.623 -4,-3.623" /></g><g
           transform="translate(259.5614,266.5)"
           id="g110"><path
             id="path112"
             style="fill:#ffffff;fill-opacity:1;fill-rule:nonzero;stroke:none"
             d="m 0,0 v -30.06 h 6.178 v 14.817 c 0,2.344 -0.088,4.686 -0.176,7.025 0.682,-2.427 2.003,-4.555 3.2,-6.682 l 8.43,-15.16 H 24.61 V 0 h -6.296 v -14.603 c 0,-2.385 0.169,-4.77 0.257,-7.152 -0.726,2.255 -1.922,4.257 -3.023,6.256 L 6.941,0 H 0" /></g><g
           transform="translate(291.9711,266.5)"
           id="g114"><path
             id="path116"
             style="fill:#ffffff;fill-opacity:1;fill-rule:nonzero;stroke:none"
             d="m 0,0 v -30.06 h 22.599 v 5.749 H 6.685 v 7.367 h 13.75 v 5.362 H 6.685 v 5.833 H 22.35 V 0 Z" /></g><g
           transform="translate(320.6681,266.5)"
           id="g118"><path
             id="path120"
             style="fill:#ffffff;fill-opacity:1;fill-rule:nonzero;stroke:none"
             d="m 0,0 v -30.06 h 6.64 v 12.903 H 17.793 V -30.06 h 6.685 V 0 H 17.793 V -11.285 H 6.64 L 6.64,0 Z" /></g><g
           transform="translate(352.9456,266.5)"
           id="g122"><path
             id="path124"
             style="fill:#ffffff;fill-opacity:1;fill-rule:nonzero;stroke:none"
             d="m 0,0 v -30.06 h 6.127 v 16.691 c 0,1.702 -0.044,3.408 -0.125,5.111 1.79,-7.283 3.61,-14.561 5.452,-21.84 l 6.64,0.038 c 1.49,5.749 2.979,11.496 4.468,17.249 0.382,1.614 0.896,3.149 1.101,4.764 -0.117,-3.576 -0.161,-7.151 -0.161,-10.732 0,-3.703 0.044,-7.491 0.044,-11.281 h 6.207 V 0 H 20.435 C 18.982,-5.62 17.58,-11.241 16.179,-16.858 15.621,-18.945 14.902,-21.035 14.77,-23.201 13.538,-15.37 11.358,-7.706 9.451,0 H 0" /></g><g
           transform="translate(390.5792,266.5)"
           id="g126"><path
             id="path128"
             style="fill:#ffffff;fill-opacity:1;fill-rule:nonzero;stroke:none"
             d="m 0,0 v -19.543 c 0,-8.004 4.513,-11.025 12.092,-11.025 7.492,0 12.004,2.852 12.004,10.856 V 0 h -6.684 v -16.304 c 0,-1.027 0.044,-2.045 0.044,-3.069 0,-3.744 -0.976,-5.49 -5.019,-5.49 -4.733,0 -5.745,1.999 -5.745,6.383 L 6.692,0 H 0" /></g><g
           transform="translate(422.2259,266.5)"
           id="g130"><path
             id="path132"
             style="fill:#ffffff;fill-opacity:1;fill-rule:nonzero;stroke:none"
             d="m 0,0 v -30.06 h 6.171 v 14.817 c 0,2.344 -0.088,4.686 -0.169,7.025 0.682,-2.427 2.003,-4.555 3.192,-6.682 l 8.431,-15.16 h 6.977 V 0 h -6.295 v -14.603 c 0,-2.385 0.176,-4.77 0.257,-7.152 -0.727,2.255 -1.915,4.257 -3.023,6.256 L 6.934,0 H 0" /></g><g
           transform="translate(474.0871,257.0051)"
           id="g134"><path
             id="path136"
             style="fill:#ffffff;fill-opacity:1;fill-rule:evenodd;stroke:none"
             d="M 0,0 6.552,0.385 C 6.508,0.47 6.508,0.554 6.464,0.64 5.906,2.809 4.931,4.555 3.441,6.173 c -2.465,2.682 -6.046,3.92 -9.707,3.92 -9.451,0 -14.683,-7.029 -14.683,-16.051 0,-8.561 4.55,-15.199 13.663,-15.199 3.324,0 8.262,1.317 9.069,5.064 0.044,-1.064 0.425,-3.533 0.851,-4.472 H 6.64 V -3.957 H -6.303 v -5.494 h 7.315 c -0.506,-3.789 -3.617,-6.218 -7.359,-6.218 -5.965,0 -8.093,5.151 -8.093,10.348 0,5.154 2.553,9.751 8.218,9.751 2.854,0 5.708,-1.407 6.266,-4.43 L 0,0" /></g><path
           id="path138"
           style="fill:none;stroke:#231f20;stroke-width:0.25;stroke-linecap:butt;stroke-linejoin:miter;stroke-miterlimit:10;stroke-dasharray:none;stroke-opacity:1"
           d="M 496.373,0.198 H 0.31 v 283.465 h 496.063 z" /><g
           transform="translate(69.9726,191.9776)"
           id="g140"><path
             id="path142"
             style="fill:#71501F;fill-opacity:1;fill-rule:nonzero;stroke:none"
             d="M 0,0 -0.004,-37.568 H -13.771 L -13.769,0 h -30.254 l -0.005,-100.066 30.256,-0.002 10e-4,37.558 h 13.765 l -0.003,-37.559 H 30.25 l 0.004,100.065 z" /></g><g
           transform="translate(144.2447,167.0293)"
           id="g144"><path
             id="path146"
             style="fill:#71501F;fill-opacity:1;fill-rule:nonzero;stroke:none"
             d="M 0,0 17.432,-0.002 V -12.625 L 0,-12.622 Z m 21.559,24.94 v 0 l -51.821,0.003 0.005,-20.819 -0.009,-79.245 30.26,-0.001 0.005,37.556 h 17.432 l -0.002,-37.558 30.259,-0.004 0.004,100.066 z" /></g><g
           transform="translate(235.9564,167.0248)"
           id="g148"><path
             id="path150"
             style="fill:#71501F;fill-opacity:1;fill-rule:nonzero;stroke:none"
             d="m 0,0 17.434,-0.002 v -12.624 l -17.436,10e-4 z m 21.553,24.94 v 0 l -51.812,0.003 V 4.124 l -0.006,-79.248 30.259,-0.001 0.002,37.559 17.431,-0.002 -0.003,-37.559 30.258,-0.001 0.005,100.066 z" /></g><g
           transform="translate(323.9991,158.5702)"
           id="g152"><path
             id="path154"
             style="fill:#71501F;fill-opacity:1;fill-rule:nonzero;stroke:none"
             d="m 0,0 v 8.447 l 51.363,-0.002 10e-4,24.944 -81.617,0.004 -0.003,-58.333 51.352,-0.003 v -16.791 h -51.352 l -0.004,-24.939 81.613,-0.005 0.009,66.675 z" /></g><g
           transform="translate(470.7369,158.5628)"
           id="g156"><path
             id="path158"
             style="fill:#71501F;fill-opacity:1;fill-rule:nonzero;stroke:none"
             d="M 0,0 -51.361,0.001 V 8.45 L 0.001,8.447 V 33.39 l -81.617,0.003 -0.003,-58.331 51.353,-0.002 -0.001,-16.792 -51.352,0.003 -0.001,-24.941 81.611,-0.006 z" /></g></g></g></g></svg>