<?xml version="1.0" encoding="UTF-8"?>
<!-- Generator: Adobe Illustrator 15.0.0, SVG Export Plug-In . SVG Version: 6.00 Build 0)  -->
<!DOCTYPE svg PUBLIC "-//W3C//DTD SVG 1.1//EN" "http://www.w3.org/Graphics/SVG/1.1/DTD/svg11.dtd">
<svg version="1.1" id="Ebene_1" xmlns="http://www.w3.org/2000/svg" xmlns:xlink="http://www.w3.org/1999/xlink" x="0px" y="0px" width="25px" height="18.357px" viewBox="39.973 43.36 25 18.357" enable-background="new 39.973 43.36 25 18.357" xml:space="preserve">
<g id="Ebene_1_1_">
</g>
<g id="Ebene_2">
	<path fill="#6b4619" d="M63.251,43.36H41.696c-0.949,0-1.722,0.773-1.722,1.723v14.911c0,0.95,0.772,1.724,1.722,1.724h21.555   c0.95,0,1.723-0.772,1.723-1.724V45.083C64.973,44.133,64.201,43.36,63.251,43.36z M42.094,46.327l5.913,5.913l-5.913,5.913V46.327   z M53.138,53.041c-0.176,0.176-0.413,0.273-0.665,0.273s-0.488-0.097-0.665-0.273l-7.559-7.559h16.447L53.138,53.041z    M49.508,53.74l0.801,0.801c0.577,0.577,1.345,0.895,2.165,0.895c0.819,0,1.588-0.317,2.165-0.895l0.801-0.801l5.855,5.856H43.651   L49.508,53.74z M56.939,52.24l5.913-5.913v11.826L56.939,52.24z"/>
</g>
</svg>