<?xml version="1.0" encoding="UTF-8" standalone="no"?>
<svg
   xmlns:dc="http://purl.org/dc/elements/1.1/"
   xmlns:cc="http://creativecommons.org/ns#"
   xmlns:rdf="http://www.w3.org/1999/02/22-rdf-syntax-ns#"
   xmlns:svg="http://www.w3.org/2000/svg"
   xmlns="http://www.w3.org/2000/svg"
   style="background-color: white"
   viewBox="0 0 214.2932 130.02611"
   height="130.02611"
   width="214.2932"
   xml:space="preserve"
   id="svg2"
   version="1.1"><metadata
     id="metadata8"><rdf:RDF><cc:Work
         rdf:about=""><dc:format>image/svg+xml</dc:format><dc:type
           rdf:resource="http://purl.org/dc/dcmitype/StillImage" /></cc:Work></rdf:RDF></metadata><defs
     id="defs6"><clipPath
       id="clipPath14"
       clipPathUnits="userSpaceOnUse"><path
         id="path12"
         d="M 0,0 H 161 V 99 H 0 Z" /></clipPath></defs><g
     clip-path="url(#clipPath14)"
     transform="matrix(1.3333333,0,0,-1.3333333,-0.24893333,130.7512)"
     id="g10"><g
       transform="translate(23.948,68.616)"
       id="g16"><path
         id="path18"
         style="fill:#6b4619;fill-opacity:1;fill-rule:nonzero;stroke:none"
         d="M 0,0 H 7.153 V -39.34 H 0 v 16.094 H -7.153 V -39.34 h -7.152 V 0 h 7.152 V -16.094 H 0 V 0" /></g><g
       transform="translate(53.751,52.523)"
       id="g20"><path
         id="path22"
         style="fill:#6b4619;fill-opacity:1;fill-rule:nonzero;stroke:none"
         d="M -8.345,0 H 2e-4 V 8.9409 H -8.345 Z M 0,0 Z m 0,16.094 h 7.153 v -39.34 H 0 v 16.093 h -8.345 v -16.093 h -7.153 l 10e-4,32.187 -10e-4,7.153 H 0" /></g><g
       transform="translate(83.554,52.523)"
       id="g24"><path
         id="path26"
         style="fill:#6b4619;fill-opacity:1;fill-rule:nonzero;stroke:none"
         d="M -8.345,0 H 2e-4 V 8.9409 H -8.345 Z M 0,0 Z m 0,16.094 h 7.152 v -39.34 H 0 v 16.093 h -8.345 v -16.093 h -7.153 V 8.941 16.094 H 0" /></g><g
       transform="translate(103.82,54.311)"
       id="g28"><path
         id="path30"
         style="fill:#6b4619;fill-opacity:1;fill-rule:nonzero;stroke:none"
         d="m 0,0 h 16.691 l -10e-4,-25.035 -23.841,0.001 v 7.152 H 9.537 V -7.153 H -7.151 V 14.305 H 16.691 V 7.152 H 0 V 0" /></g><g
       transform="translate(134.814,54.311)"
       id="g32"><path
         id="path34"
         style="fill:#6b4619;fill-opacity:1;fill-rule:nonzero;stroke:none"
         d="m 0,0 h 16.691 l -10e-4,-25.035 -23.841,0.001 v 7.152 H 9.537 V -7.153 H -7.151 V 14.305 H 16.691 V 7.152 H 0 V 0" /></g><path
       id="path36"
       style="fill:#6b4619;fill-opacity:1;fill-rule:nonzero;stroke:none"
       d="M 0.165,74.724 H 160.983 V 98.031 H 0.165 Z" /><path
       id="path38"
       style="fill:#6b4619;fill-opacity:1;fill-rule:nonzero;stroke:none"
       d="m 0.165,0.14238 h 160.818 v 24.472 H 0.165 Z" /><g
       transform="translate(9.6314,91.211)"
       id="g40"><path
         id="path42"
         style="fill:#ffffff;fill-opacity:1;fill-rule:evenodd;stroke:none"
         d="m 0,0 v -9.178 h 3.861 c 1.82,0 3.51,0.546 3.51,2.678 0,1.027 -0.442,1.781 -1.404,2.171 -0.052,0.013 -0.104,0.026 -0.143,0.052 0.819,0.299 1.313,1.118 1.313,1.976 C 7.137,-0.273 5.005,0 3.419,0 Z M 3.887,-3.575 H 2.028 v 1.82 H 3.9 c 0.598,0 1.209,-0.169 1.209,-0.897 0,-0.741 -0.585,-0.923 -1.222,-0.923 z M 3.913,-7.462 H 2.028 v 2.249 h 2.054 c 0.624,0 1.196,-0.351 1.196,-1.027 0,-0.884 -0.546,-1.222 -1.365,-1.222" /></g><g
       transform="translate(21.047,91.211)"
       id="g44"><path
         id="path46"
         style="fill:#ffffff;fill-opacity:1;fill-rule:evenodd;stroke:none"
         d="m 0,0 -3.068,-9.178 h 2.21 l 0.572,1.859 H 2.795 L 3.367,-9.178 H 5.616 L 2.574,0 Z M 2.301,-5.668 H 0.182 l 1.079,3.783 1.04,-3.783" /></g><g
       transform="translate(28.238,91.211)"
       id="g48"><path
         id="path50"
         style="fill:#ffffff;fill-opacity:1;fill-rule:nonzero;stroke:none"
         d="m 0,0 v -5.967 c 0,-2.444 1.378,-3.367 3.692,-3.367 2.288,0 3.666,0.871 3.666,3.315 V 0 H 5.317 v -4.979 c 0,-0.312 0.013,-0.624 0.013,-0.936 0,-1.144 -0.299,-1.677 -1.534,-1.677 -1.443,0 -1.755,0.611 -1.755,1.95 L 2.041,0 H 0" /></g><g
       transform="translate(37.846,91.211)"
       id="g52"><path
         id="path54"
         style="fill:#ffffff;fill-opacity:1;fill-rule:nonzero;stroke:none"
         d="m 0,0 v -5.967 c 0,-2.444 1.378,-3.367 3.692,-3.367 2.287,0 3.666,0.871 3.666,3.315 V 0 H 5.317 v -4.979 c 0,-0.312 0.013,-0.624 0.013,-0.936 0,-1.144 -0.299,-1.677 -1.534,-1.677 -1.443,0 -1.755,0.611 -1.755,1.95 L 2.041,0 H 0" /></g><g
       transform="translate(47.506,91.211)"
       id="g56"><path
         id="path58"
         style="fill:#ffffff;fill-opacity:1;fill-rule:nonzero;stroke:none"
         d="m 0,0 v -9.178 h 1.885 v 4.524 c 0,0.715 -0.026,1.43 -0.052,2.145 C 2.041,-3.25 2.444,-3.9 2.808,-4.55 l 2.575,-4.628 h 2.13 V 0 H 5.591 v -4.459 c 0,-0.728 0.053,-1.456 0.079,-2.184 -0.222,0.689 -0.586,1.3 -0.924,1.911 L 2.119,0 H 0" /></g><g
       transform="translate(56.438,91.211)"
       id="g60"><path
         id="path62"
         style="fill:#ffffff;fill-opacity:1;fill-rule:nonzero;stroke:none"
         d="m 0,0 v -1.768 h 2.821 v -7.41 h 2.041 v 7.41 H 7.605 V 0 H 0" /></g><g
       transform="translate(65.644,91.211)"
       id="g64"><path
         id="path66"
         style="fill:#ffffff;fill-opacity:1;fill-rule:nonzero;stroke:none"
         d="m 0,0 v -9.178 h 6.903 v 1.755 H 2.041 v 2.249 H 6.24 v 1.638 H 2.041 v 1.781 H 6.825 L 6.825,0 H 0" /></g><g
       transform="translate(74.408,91.211)"
       id="g68"><path
         id="path70"
         style="fill:#ffffff;fill-opacity:1;fill-rule:evenodd;stroke:none"
         d="m 0,0 v -9.178 h 2.015 v 3.679 h 1.079 c 1.443,0 1.963,-0.481 1.963,-1.872 0,-0.585 -0.091,-1.417 0.416,-1.807 H 7.527 C 6.409,-7.813 7.956,-5.33 5.681,-4.68 6.747,-4.355 7.293,-3.562 7.293,-2.457 7.293,-0.52 5.707,0 4.056,0 Z M 4.043,-3.887 H 2.015 v 2.132 h 1.833 c 0.741,0 1.417,-0.13 1.417,-1.027 0,-0.78 -0.494,-1.105 -1.222,-1.105" /></g><g
       transform="translate(84.016,91.211)"
       id="g72"><path
         id="path74"
         style="fill:#ffffff;fill-opacity:1;fill-rule:nonzero;stroke:none"
         d="m 0,0 v -9.178 h 1.885 v 4.524 c 0,0.715 -0.026,1.43 -0.052,2.145 C 2.041,-3.25 2.444,-3.9 2.808,-4.55 l 2.575,-4.628 h 2.13 V 0 H 5.591 v -4.459 c 0,-0.728 0.052,-1.456 0.079,-2.184 -0.222,0.689 -0.586,1.3 -0.924,1.911 L 2.119,0 H 0" /></g><g
       transform="translate(93.91,91.211)"
       id="g76"><path
         id="path78"
         style="fill:#ffffff;fill-opacity:1;fill-rule:nonzero;stroke:none"
         d="m 0,0 v -9.178 h 6.903 v 1.755 H 2.041 v 2.249 H 6.24 v 1.638 H 2.041 v 1.781 H 6.825 L 6.825,0 H 0" /></g><g
       transform="translate(102.674,91.211)"
       id="g80"><path
         id="path82"
         style="fill:#ffffff;fill-opacity:1;fill-rule:nonzero;stroke:none"
         d="m 0,0 v -9.178 h 2.028 v 3.939 H 5.434 V -9.178 H 7.475 V 0 H 5.434 V -3.445 H 2.028 L 2.028,0 H 0" /></g><g
       transform="translate(112.529,91.211)"
       id="g84"><path
         id="path86"
         style="fill:#ffffff;fill-opacity:1;fill-rule:nonzero;stroke:none"
         d="m 0,0 v -9.178 h 1.872 v 5.096 c 0,0.52 -0.013,1.04 -0.039,1.56 0.546,-2.223 1.105,-4.446 1.664,-6.669 l 2.028,0.013 c 0.455,1.755 0.91,3.51 1.365,5.265 0.117,0.494 0.273,0.962 0.338,1.456 -0.039,-1.092 -0.052,-2.184 -0.052,-3.276 0,-1.131 0.013,-2.288 0.013,-3.445 H 9.087 L 9.087,0 H 6.24 C 5.798,-1.716 5.369,-3.432 4.94,-5.148 4.771,-5.785 4.55,-6.422 4.511,-7.085 4.134,-4.693 3.471,-2.353 2.886,0 H 0" /></g><g
       transform="translate(124.022,91.211)"
       id="g88"><path
         id="path90"
         style="fill:#ffffff;fill-opacity:1;fill-rule:nonzero;stroke:none"
         d="m 0,0 v -5.967 c 0,-2.444 1.378,-3.367 3.692,-3.367 2.288,0 3.666,0.871 3.666,3.315 V 0 H 5.317 v -4.979 c 0,-0.312 0.013,-0.624 0.013,-0.936 0,-1.144 -0.299,-1.677 -1.534,-1.677 -1.443,0 -1.755,0.611 -1.755,1.95 L 2.041,0 H 0" /></g><g
       transform="translate(133.683,91.211)"
       id="g92"><path
         id="path94"
         style="fill:#ffffff;fill-opacity:1;fill-rule:nonzero;stroke:none"
         d="m 0,0 v -9.178 h 1.885 v 4.524 c 0,0.715 -0.026,1.43 -0.052,2.145 C 2.041,-3.25 2.444,-3.9 2.808,-4.55 l 2.575,-4.628 h 2.13 V 0 H 5.591 v -4.459 c 0,-0.728 0.052,-1.456 0.079,-2.184 -0.222,0.689 -0.586,1.3 -0.924,1.911 L 2.119,0 H 0" /></g><g
       transform="translate(149.518,88.312)"
       id="g96"><path
         id="path98"
         style="fill:#ffffff;fill-opacity:1;fill-rule:evenodd;stroke:none"
         d="M 0,0 2.002,0.117 C 1.989,0.143 1.989,0.169 1.976,0.195 1.807,0.858 1.508,1.391 1.053,1.885 0.299,2.704 -0.793,3.081 -1.912,3.081 c -2.885,0 -4.484,-2.145 -4.484,-4.901 0,-2.613 1.391,-4.641 4.173,-4.641 1.014,0 2.522,0.403 2.769,1.547 0.013,-0.325 0.13,-1.079 0.26,-1.365 h 1.222 v 5.07 h -3.952 v -1.677 h 2.236 c -0.156,-1.157 -1.105,-1.898 -2.249,-1.898 -1.82,0 -2.47,1.573 -2.47,3.159 0,1.573 0.78,2.977 2.509,2.977 0.871,0 1.742,-0.429 1.911,-1.352 L 0,0" /></g><g
       transform="translate(10.192,17.94)"
       id="g100"><path
         id="path102"
         style="fill:#ffffff;fill-opacity:1;fill-rule:nonzero;stroke:none"
         d="M 0,0 V -1.841 H 4.626 C 4.19,-2.233 3.871,-2.74 3.538,-3.219 2.015,-5.437 1.319,-7.554 1.102,-10.237 h 2.393 c -0.015,0.232 0.014,0.464 0.043,0.6963 0.275,2.8847 1.29,5.8577 3.538,7.8157 L 7.061,0 H 0" /></g><g
       transform="translate(18.281,12.184)"
       id="g104"><path
         id="path106"
         style="fill:#ffffff;fill-opacity:1;fill-rule:evenodd;stroke:none"
         d="m 0,0 v -2.3057 h 4.002 v -2.1748 h 2.074 v 2.1748 H 7.25 V -0.594 H 6.076 v 6.35 H 3.393 Z M 4.002,-0.594 H 1.639 C 2.494,0.797 3.263,2.248 4.075,3.668 4.002,2.943 3.988,2.219 3.988,1.493 c 0,-0.696 0.014,-1.392 0.014,-2.087" /></g><g
       transform="translate(29.762,11.111)"
       id="g108"><path
         id="path110"
         style="fill:#ffffff;fill-opacity:1;fill-rule:evenodd;stroke:none"
         d="m 0,0 h -2.059 c 0,-0.058 0,-0.116 0,-0.174 -0.014,-0.348 0.059,-0.711 0.16,-1.044 0.508,-1.7689 1.755,-2.4506 3.524,-2.4506 2.087,0 3.595,1.3342 3.595,3.4656 0,1.102 -0.536,1.812 -1.522,2.262 0.841,0.421 1.247,1.305 1.247,2.204 0,1.9 -1.638,2.828 -3.364,2.828 -2.088,0 -3.436,-1.32 -3.436,-3.422 V 3.596 H 0.16 c 0,0.914 0.348,1.769 1.392,1.769 0.754,0 1.349,-0.478 1.349,-1.261 C 2.901,3.03 2.06,2.726 1.131,2.726 1.001,2.726 0.87,2.74 0.74,2.755 L 0.725,1.145 c 0.189,0.029 0.377,0.044 0.566,0.044 0.986,0 1.725,-0.478 1.725,-1.537 0,-0.8556 -0.536,-1.5514 -1.449,-1.5514 -1.001,0 -1.494,0.6235 -1.567,1.5664 0,0.116 0.015,0.232 0,0.347 V 0" /></g><g
       transform="translate(42.535,15.302)"
       id="g112"><path
         id="path114"
         style="fill:#ffffff;fill-opacity:1;fill-rule:evenodd;stroke:none"
         d="M 0,0 H 2.001 V 0.043 C 2.016,0.174 1.972,0.304 1.943,0.42 1.552,2.074 0.508,2.886 -1.203,2.886 c -3.132,0 -3.755,-2.93 -3.755,-5.467 0,-2.523 0.739,-5.2634 3.769,-5.2634 2.089,0 3.379,1.5514 3.379,3.5674 0,1.884 -1.146,3.422 -3.132,3.422 -0.682,0 -1.363,-0.261 -1.885,-0.711 0,1.058 0.247,2.842 1.638,2.842 C -0.435,1.276 -0.043,0.696 0,0 Z m -1.203,-6.1624 c -1.001,0 -1.436,0.9574 -1.436,1.8274 0,0.855 0.363,1.783 1.363,1.783 1.015,0 1.421,-1 1.421,-1.871 0,-0.812 -0.406,-1.7394 -1.348,-1.7394" /></g><g
       transform="translate(48.927,11.111)"
       id="g116"><path
         id="path118"
         style="fill:#ffffff;fill-opacity:1;fill-rule:evenodd;stroke:none"
         d="m 0,0 h -2.059 c 0,-0.058 0,-0.116 0,-0.174 -0.014,-0.348 0.058,-0.711 0.16,-1.044 0.507,-1.7689 1.754,-2.4506 3.523,-2.4506 2.088,0 3.596,1.3342 3.596,3.4656 0,1.102 -0.536,1.812 -1.522,2.262 0.841,0.421 1.247,1.305 1.247,2.204 0,1.9 -1.638,2.828 -3.364,2.828 -2.088,0 -3.437,-1.32 -3.437,-3.422 V 3.596 H 0.16 c 0,0.914 0.348,1.769 1.392,1.769 0.754,0 1.349,-0.478 1.349,-1.261 C 2.901,3.03 2.06,2.726 1.131,2.726 1.001,2.726 0.87,2.74 0.74,2.755 L 0.725,1.145 c 0.189,0.029 0.377,0.044 0.566,0.044 0.986,0 1.725,-0.478 1.725,-1.537 0,-0.8556 -0.536,-1.5514 -1.45,-1.5514 -1,0 -1.493,0.6235 -1.566,1.5664 0,0.116 0.015,0.232 0,0.347 V 0" /></g><g
       transform="translate(66.411,14.707)"
       id="g120"><path
         id="path122"
         style="fill:#ffffff;fill-opacity:1;fill-rule:evenodd;stroke:none"
         d="M 0,0 2.233,0.131 C 2.219,0.159 2.219,0.189 2.204,0.218 2.016,0.957 1.682,1.552 1.175,2.103 c -0.841,0.913 -2.06,1.334 -3.306,1.334 -3.219,0 -5.003,-2.393 -5.003,-5.467 0,-2.9145 1.552,-5.1766 4.655,-5.1766 1.13,0 2.813,0.4496 3.088,1.7256 0.014,-0.3624 0.145,-1.2034 0.29,-1.5225 h 1.363 v 5.6555 h -4.408 v -1.871 h 2.494 c -0.174,-1.29 -1.233,-2.1169 -2.508,-2.1169 -2.03,0 -2.755,1.7539 -2.755,3.5239 0,1.754 0.87,3.32 2.798,3.32 0.972,0 1.943,-0.479 2.132,-1.508 L 0,0" /></g><g
       transform="translate(71.716,17.94)"
       id="g124"><path
         id="path126"
         style="fill:#ffffff;fill-opacity:1;fill-rule:evenodd;stroke:none"
         d="m 0,0 c 0,-2.131 0,-4.263 0,-6.394 0,-0.363 0,-0.74 0.043,-1.117 0.247,-2.175 2.117,-2.9 4.075,-2.9 2.422,0 4.089,0.9281 4.089,3.567 V 0 H 5.931 v -5.727 c 0,-1.595 0.246,-2.741 -1.828,-2.741 -1.652,0 -1.827,1.015 -1.827,2.407 L 2.276,0 Z M 3.495,2.422 H 1.523 V 0.6238 h 1.972 z m -1.973,0 z m 5.133,0 H 4.683 V 0.6238 h 1.972 z" /></g><g
       transform="translate(89.52,14.707)"
       id="g128"><path
         id="path130"
         style="fill:#ffffff;fill-opacity:1;fill-rule:evenodd;stroke:none"
         d="M 0,0 2.233,0.131 C 2.219,0.159 2.219,0.189 2.204,0.218 2.016,0.957 1.682,1.552 1.175,2.103 c -0.842,0.913 -2.06,1.334 -3.306,1.334 -3.219,0 -5.003,-2.393 -5.003,-5.467 0,-2.9145 1.552,-5.1766 4.654,-5.1766 1.131,0 2.813,0.4496 3.089,1.7256 0.014,-0.3624 0.145,-1.2034 0.29,-1.5225 h 1.363 v 5.6555 h -4.408 v -1.871 h 2.494 c -0.174,-1.29 -1.233,-2.1169 -2.508,-2.1169 -2.031,0 -2.756,1.7539 -2.756,3.5239 0,1.754 0.871,3.32 2.799,3.32 0.971,0 1.943,-0.479 2.132,-1.508 L 0,0" /></g><g
       transform="translate(94.912,17.94)"
       id="g132"><path
         id="path134"
         style="fill:#ffffff;fill-opacity:1;fill-rule:nonzero;stroke:none"
         d="m 0,0 v -10.237 h 7.308 v 1.9285 H 2.306 V 0 H 0" /></g><path
       id="path136"
       style="fill:#ffffff;fill-opacity:1;fill-rule:nonzero;stroke:none"
       d="m 104.61,7.7036 h 2.3198 v 10.237 H 104.61 Z" /><g
       transform="translate(109.785,17.94)"
       id="g138"><path
         id="path140"
         style="fill:#ffffff;fill-opacity:1;fill-rule:nonzero;stroke:none"
         d="m 0,0 v -10.237 h 2.102 v 5.046 c 0,0.798 -0.029,1.595 -0.058,2.393 0.232,-0.827 0.682,-1.552 1.088,-2.277 l 2.872,-5.162 H 8.379 V 0 H 6.236 v -4.973 c 0,-0.812 0.058,-1.624 0.087,-2.436 -0.247,0.768 -0.653,1.45 -1.03,2.131 L 2.363,0 H 0" /></g><g
       transform="translate(127.835,14.707)"
       id="g142"><path
         id="path144"
         style="fill:#ffffff;fill-opacity:1;fill-rule:evenodd;stroke:none"
         d="M 0,0 2.233,0.131 C 2.219,0.159 2.219,0.189 2.204,0.218 2.016,0.957 1.682,1.552 1.175,2.103 c -0.841,0.913 -2.06,1.334 -3.306,1.334 -3.219,0 -5.003,-2.393 -5.003,-5.467 0,-2.9145 1.552,-5.1766 4.655,-5.1766 1.13,0 2.813,0.4496 3.088,1.7256 0.015,-0.3624 0.145,-1.2034 0.29,-1.5225 h 1.363 v 5.6555 h -4.408 v -1.871 h 2.494 c -0.174,-1.29 -1.233,-2.1169 -2.508,-2.1169 -2.03,0 -2.755,1.7539 -2.755,3.5239 0,1.754 0.87,3.32 2.798,3.32 0.972,0 1.943,-0.479 2.132,-1.508 L 0,0" /></g><g
       transform="translate(133.213,17.94)"
       id="g146"><path
         id="path148"
         style="fill:#ffffff;fill-opacity:1;fill-rule:nonzero;stroke:none"
         d="m 0,0 v -10.237 h 7.7 v 1.9575 H 2.276 V -5.771 H 6.96 v 1.827 H 2.276 v 1.987 H 7.613 L 7.613,0 H 0" /></g><g
       transform="translate(143.375,17.94)"
       id="g150"><path
         id="path152"
         style="fill:#ffffff;fill-opacity:1;fill-rule:nonzero;stroke:none"
         d="m 0,0 v -10.237 h 2.103 v 5.046 c 0,0.798 -0.029,1.595 -0.058,2.393 0.232,-0.827 0.681,-1.552 1.088,-2.277 l 2.872,-5.162 H 8.379 V 0 H 6.237 v -4.973 c 0,-0.812 0.058,-1.624 0.087,-2.436 -0.247,0.768 -0.653,1.45 -1.03,2.131 L 2.363,0 H 0" /></g></g></svg>