<?xml version="1.0" encoding="UTF-8" standalone="no"?>
<svg
   xmlns:dc="http://purl.org/dc/elements/1.1/"
   xmlns:cc="http://creativecommons.org/ns#"
   xmlns:rdf="http://www.w3.org/1999/02/22-rdf-syntax-ns#"
   xmlns:svg="http://www.w3.org/2000/svg"
   xmlns="http://www.w3.org/2000/svg"
   viewBox="0 0 206.66667 193.33333"
   height="193.33333"
   width="206.66667"
   xml:space="preserve"
   id="svg2"
   version="1.1"><metadata
     id="metadata8"><rdf:RDF><cc:Work
         rdf:about=""><dc:format>image/svg+xml</dc:format><dc:type
           rdf:resource="http://purl.org/dc/dcmitype/StillImage" /></cc:Work></rdf:RDF></metadata><defs
     id="defs6" /><g
     transform="matrix(1.3333333,0,0,-1.3333333,0,193.33333)"
     id="g10"><g
       transform="scale(0.1)"
       id="g12"><path
         id="path14"
         style="fill:none;stroke:#71501f;stroke-width:29.99909973;stroke-linecap:round;stroke-linejoin:round;stroke-miterlimit:10;stroke-dasharray:none;stroke-opacity:1"
         d="M 16.4414,944.336 H 994.605" /><path
         id="path16"
         style="fill:none;stroke:#71501f;stroke-width:29.99909973;stroke-linecap:round;stroke-linejoin:round;stroke-miterlimit:10;stroke-dasharray:none;stroke-opacity:1"
         d="M 505.52,1433.42 V 943.82" /><path
         id="path18"
         style="fill:none;stroke:#71501f;stroke-width:29.99909973;stroke-linecap:round;stroke-linejoin:round;stroke-miterlimit:10;stroke-dasharray:none;stroke-opacity:1"
         d="m 16.4414,943.82 c 0,270.15 218.9996,489.67 489.1526,489.67 270.152,0 489.152,-220.26 489.152,-490.408" /><path
         id="path20"
         style="fill:none;stroke:#71501f;stroke-width:29.99909973;stroke-linecap:round;stroke-linejoin:round;stroke-miterlimit:10;stroke-dasharray:none;stroke-opacity:1"
         d="m 505.594,1433.49 c 0,0 -262.207,-104.69 -262.207,-489.154" /><path
         id="path22"
         style="fill:none;stroke:#71501f;stroke-width:29.99909973;stroke-linecap:round;stroke-linejoin:round;stroke-miterlimit:10;stroke-dasharray:none;stroke-opacity:1"
         d="m 505.594,1433.49 c 0,0 262.207,-104.69 262.207,-489.154" /><path
         id="path24"
         style="fill:none;stroke:#71501f;stroke-width:29.99909973;stroke-linecap:round;stroke-linejoin:round;stroke-miterlimit:10;stroke-dasharray:none;stroke-opacity:1"
         d="m 505.52,1154.17 c -270.102,0 -340.075,141.69 -340.075,141.69" /><path
         id="path26"
         style="fill:none;stroke:#71501f;stroke-width:29.99909973;stroke-linecap:round;stroke-linejoin:round;stroke-miterlimit:10;stroke-dasharray:none;stroke-opacity:1"
         d="m 845.742,1295.86 c 0,0 -69.972,-141.69 -340.078,-141.69" /><path
         id="path28"
         style="fill:none;stroke:#71501f;stroke-width:29.99909973;stroke-linecap:round;stroke-linejoin:round;stroke-miterlimit:10;stroke-dasharray:none;stroke-opacity:1"
         d="M 505.664,454.738 V 944.336" /><path
         id="path30"
         style="fill:none;stroke:#71501f;stroke-width:29.99909973;stroke-linecap:round;stroke-linejoin:round;stroke-miterlimit:10;stroke-dasharray:none;stroke-opacity:1"
         d="m 994.746,943.82 c 0,-270.152 -219,-489.152 -489.152,-489.152 -270.153,0 -489.1526,219 -489.1526,489.152" /><path
         id="path32"
         style="fill:none;stroke:#71501f;stroke-width:29.99909973;stroke-linecap:round;stroke-linejoin:round;stroke-miterlimit:10;stroke-dasharray:none;stroke-opacity:1"
         d="m 505.594,454.668 c 0,0 262.207,104.684 262.207,489.152" /><path
         id="path34"
         style="fill:none;stroke:#71501f;stroke-width:29.99909973;stroke-linecap:round;stroke-linejoin:round;stroke-miterlimit:10;stroke-dasharray:none;stroke-opacity:1"
         d="m 243.387,943.82 c 0,-384.468 262.207,-489.152 262.207,-489.152" /><path
         id="path36"
         style="fill:none;stroke:#71501f;stroke-width:29.99909973;stroke-linecap:round;stroke-linejoin:round;stroke-miterlimit:10;stroke-dasharray:none;stroke-opacity:1"
         d="m 505.594,454.668 v -0.023" /><path
         id="path38"
         style="fill:none;stroke:#71501f;stroke-width:29.99909973;stroke-linecap:round;stroke-linejoin:round;stroke-miterlimit:10;stroke-dasharray:none;stroke-opacity:1"
         d="m 505.594,454.645 c 0,-118.067 119.258,-200.434 228.73,-156.211 138.52,55.957 309.766,169.796 423.156,401.296 21.09,43.04 65.44,69.774 113.37,69.774" /><path
         id="path40"
         style="fill:none;stroke:#71501f;stroke-width:29.99909973;stroke-linecap:round;stroke-linejoin:round;stroke-miterlimit:10;stroke-dasharray:none;stroke-opacity:1"
         d="m 1270.85,769.504 c 49.26,0 89.19,-39.93 89.19,-89.191" /><path
         id="path42"
         style="fill:none;stroke:#71501f;stroke-width:29.99909973;stroke-linecap:round;stroke-linejoin:round;stroke-miterlimit:10;stroke-dasharray:none;stroke-opacity:1"
         d="M 1360.04,680.313 V 364.484" /><path
         id="path44"
         style="fill:none;stroke:#71501f;stroke-width:29.99909973;stroke-linecap:round;stroke-linejoin:round;stroke-miterlimit:10;stroke-dasharray:none;stroke-opacity:1"
         d="m 845.742,592.301 c 0,0 -69.972,141.687 -340.078,141.687" /><path
         id="path46"
         style="fill:none;stroke:#71501f;stroke-width:29.99909973;stroke-linecap:round;stroke-linejoin:round;stroke-miterlimit:10;stroke-dasharray:none;stroke-opacity:1"
         d="m 165.445,592.301 c 0,0 69.973,141.687 340.075,141.687" /><path
         id="path48"
         style="fill:none;stroke:#71501f;stroke-width:29.99909973;stroke-linecap:round;stroke-linejoin:round;stroke-miterlimit:10;stroke-dasharray:none;stroke-opacity:1"
         d="m 1408,16.1836 h -95.91" /><path
         id="path50"
         style="fill:none;stroke:#71501f;stroke-width:29.99909973;stroke-linecap:round;stroke-linejoin:round;stroke-miterlimit:10;stroke-dasharray:none;stroke-opacity:1"
         d="m 1312.09,16.1836 c -68.32,0 -123.7,55.3828 -123.7,123.7034" /><path
         id="path52"
         style="fill:none;stroke:#71501f;stroke-width:29.99909973;stroke-linecap:round;stroke-linejoin:round;stroke-miterlimit:10;stroke-dasharray:none;stroke-opacity:1"
         d="M 1188.39,139.887 V 424.285" /><path
         id="path54"
         style="fill:none;stroke:#71501f;stroke-width:29.99909973;stroke-linecap:round;stroke-linejoin:round;stroke-miterlimit:10;stroke-dasharray:none;stroke-opacity:1"
         d="m 1188.39,424.285 c 0,68.32 55.38,123.703 123.7,123.703" /><path
         id="path56"
         style="fill:none;stroke:#71501f;stroke-width:29.99909973;stroke-linecap:round;stroke-linejoin:round;stroke-miterlimit:10;stroke-dasharray:none;stroke-opacity:1"
         d="M 1312.09,547.988 H 1408" /><path
         id="path58"
         style="fill:none;stroke:#71501f;stroke-width:29.99909973;stroke-linecap:round;stroke-linejoin:round;stroke-miterlimit:10;stroke-dasharray:none;stroke-opacity:1"
         d="m 1408,547.988 c 68.32,0 123.7,-55.383 123.7,-123.703" /><path
         id="path60"
         style="fill:none;stroke:#71501f;stroke-width:29.99909973;stroke-linecap:round;stroke-linejoin:round;stroke-miterlimit:10;stroke-dasharray:none;stroke-opacity:1"
         d="M 1531.7,424.285 V 139.887" /><path
         id="path62"
         style="fill:none;stroke:#71501f;stroke-width:29.99909973;stroke-linecap:round;stroke-linejoin:round;stroke-miterlimit:10;stroke-dasharray:none;stroke-opacity:1"
         d="M 1531.7,139.887 C 1531.7,71.5664 1476.32,16.1836 1408,16.1836" /></g></g></svg>