<?xml version="1.0" encoding="UTF-8" standalone="no"?>
<svg
   xmlns:dc="http://purl.org/dc/elements/1.1/"
   xmlns:cc="http://creativecommons.org/ns#"
   xmlns:rdf="http://www.w3.org/1999/02/22-rdf-syntax-ns#"
   xmlns:svg="http://www.w3.org/2000/svg"
   xmlns="http://www.w3.org/2000/svg"
   viewBox="0 0 194.66667 194.66667"
   height="194.66667"
   width="194.66667"
   xml:space="preserve"
   id="svg2"
   version="1.1"><metadata
     id="metadata8"><rdf:RDF><cc:Work
         rdf:about=""><dc:format>image/svg+xml</dc:format><dc:type
           rdf:resource="http://purl.org/dc/dcmitype/StillImage" /></cc:Work></rdf:RDF></metadata><defs
     id="defs6" /><g
     transform="matrix(1.3333333,0,0,-1.3333333,0,194.66667)"
     id="g10"><g
       transform="scale(0.1)"
       id="g12"><path
         id="path14"
         style="fill:none;stroke:#71501f;stroke-width:29.99909973;stroke-linecap:round;stroke-linejoin:round;stroke-miterlimit:10;stroke-dasharray:none;stroke-opacity:1"
         d="M 1417.45,310.824 1185.52,542.758" /><path
         id="path16"
         style="fill:none;stroke:#71501f;stroke-width:29.99909973;stroke-linecap:round;stroke-linejoin:round;stroke-miterlimit:10;stroke-dasharray:none;stroke-opacity:1"
         d="m 1185.52,542.758 c -32.3,32.293 -84.66,32.293 -116.96,0" /><path
         id="path18"
         style="fill:none;stroke:#71501f;stroke-width:29.99909973;stroke-linecap:round;stroke-linejoin:round;stroke-miterlimit:10;stroke-dasharray:none;stroke-opacity:1"
         d="M 1068.56,542.758 952.051,426.246" /><path
         id="path20"
         style="fill:none;stroke:#71501f;stroke-width:29.99909973;stroke-linecap:round;stroke-linejoin:round;stroke-miterlimit:10;stroke-dasharray:none;stroke-opacity:1"
         d="M 952.051,426.246 C 922.852,397.047 877.137,391.457 842.297,413.625 668.547,524.172 522.074,669.492 413.645,841.766 c -21.891,34.777 -16.165,80.242 12.898,109.3" /><path
         id="path22"
         style="fill:none;stroke:#71501f;stroke-width:29.99909973;stroke-linecap:round;stroke-linejoin:round;stroke-miterlimit:10;stroke-dasharray:none;stroke-opacity:1"
         d="M 426.543,951.066 543.402,1067.93" /><path
         id="path24"
         style="fill:none;stroke:#71501f;stroke-width:29.99909973;stroke-linecap:round;stroke-linejoin:round;stroke-miterlimit:10;stroke-dasharray:none;stroke-opacity:1"
         d="m 543.402,1067.93 c 32.293,32.29 32.293,84.65 0,116.95" /><path
         id="path26"
         style="fill:none;stroke:#71501f;stroke-width:29.99909973;stroke-linecap:round;stroke-linejoin:round;stroke-miterlimit:10;stroke-dasharray:none;stroke-opacity:1"
         d="M 543.402,1184.88 311.469,1416.8" /><path
         id="path28"
         style="fill:none;stroke:#71501f;stroke-width:29.99909973;stroke-linecap:round;stroke-linejoin:round;stroke-miterlimit:10;stroke-dasharray:none;stroke-opacity:1"
         d="m 311.469,1416.8 c -32.301,32.31 -84.68,32.3 -116.969,-0.01" /><path
         id="path30"
         style="fill:none;stroke:#71501f;stroke-width:29.99909973;stroke-linecap:round;stroke-linejoin:round;stroke-miterlimit:10;stroke-dasharray:none;stroke-opacity:1"
         d="M 194.5,1416.79 57.1055,1279.32" /><path
         id="path32"
         style="fill:none;stroke:#71501f;stroke-width:29.99909973;stroke-linecap:round;stroke-linejoin:round;stroke-miterlimit:10;stroke-dasharray:none;stroke-opacity:1"
         d="M 57.1055,1279.32 C 26.4531,1248.66 16.1797,1202.91 31.1094,1162.21 223.777,637.156 637.789,223.137 1162.85,30.4727 c 40.7,-14.9336 86.44,-4.6563 117.11,25.9961" /><path
         id="path34"
         style="fill:none;stroke:#71501f;stroke-width:29.99909973;stroke-linecap:round;stroke-linejoin:round;stroke-miterlimit:10;stroke-dasharray:none;stroke-opacity:1"
         d="M 1279.96,56.4688 1417.43,193.859" /><path
         id="path36"
         style="fill:none;stroke:#71501f;stroke-width:29.99909973;stroke-linecap:round;stroke-linejoin:round;stroke-miterlimit:10;stroke-dasharray:none;stroke-opacity:1"
         d="m 1417.43,193.859 c 32.31,32.293 32.32,84.668 0.02,116.965" /></g></g></svg>